<?xml version="1.0" encoding="utf-8"?>
<!-- Generator: Adobe Illustrator 24.1.2, SVG Export Plug-In . SVG Version: 6.00 Build 0)  -->
<svg version="1.1" id="Layer_1" xmlns="http://www.w3.org/2000/svg" xmlns:xlink="http://www.w3.org/1999/xlink" x="0px" y="0px"
	 viewBox="0 0 45 45" style="enable-background:new 0 0 45 45;" xml:space="preserve">
<style type="text/css">
	.st0{fill:#FFFFFF;}
</style>
<path class="st0" d="M38.9,0H6.1C2.7,0,0,2.7,0,6.1v32.9C0,42.3,2.7,45,6.1,45h16.2l0-16.1h-4.2c-0.5,0-1-0.4-1-1l0-5.2
	c0-0.5,0.4-1,1-1h4.2v-5c0-5.8,3.5-9,8.7-9h4.3c0.5,0,1,0.4,1,1v4.4c0,0.5-0.4,1-1,1l-2.6,0c-2.8,0-3.4,1.3-3.4,3.3v4.3h6.2
	c0.6,0,1,0.5,1,1.1L35.9,28c-0.1,0.5-0.5,0.9-1,0.9h-5.6l0,16.1h9.6c3.3,0,6.1-2.7,6.1-6.1V6.1C45,2.7,42.3,0,38.9,0z"/>
</svg>
