<?xml version="1.0" standalone="no"?>
<!DOCTYPE svg PUBLIC "-//W3C//DTD SVG 20010904//EN"
 "http://www.w3.org/TR/2001/REC-SVG-20010904/DTD/svg10.dtd">
<svg color="white" version="1.0" xmlns="http://www.w3.org/2000/svg"
 width="167.000000pt" height="161.000000pt" viewBox="0 0 167.000000 161.000000"
 preserveAspectRatio="xMidYMid meet">
<metadata>
Created by potrace 1.16, written by Peter Selinger 2001-2019
</metadata>
<g transform="translate(0.000000,161.000000) scale(0.100000,-0.100000)"
fill="#000000" stroke="none">
<path d="M700 1420 c-149 -26 -299 -126 -392 -262 -108 -160 -135 -358 -74
-541 144 -430 684 -567 1009 -257 122 116 185 246 194 405 10 164 -29 297
-125 424 -82 109 -239 207 -366 230 -67 12 -178 13 -246 1z m433 -95 c20 -14
37 -29 37 -33 0 -12 -129 -108 -172 -128 -40 -19 -49 -38 -22 -48 34 -13 225
-2 320 19 28 6 33 3 53 -28 11 -19 21 -39 21 -44 0 -6 -35 -13 -77 -16 -187
-15 -233 -20 -233 -26 0 -40 109 -95 220 -111 41 -6 90 -16 108 -21 30 -10 32
-13 32 -56 l0 -46 -58 5 c-31 3 -84 17 -117 31 -33 13 -88 28 -122 32 l-63 7
0 -34 c1 -57 20 -121 51 -168 31 -46 37 -109 13 -117 -17 -6 -70 43 -86 79 -9
18 -30 65 -48 105 -29 64 -37 74 -69 84 -71 22 -171 94 -171 121 0 5 24 9 53
9 l52 2 -63 8 c-72 9 -86 18 -113 70 -29 58 -52 69 -144 69 -44 0 -96 5 -116
10 -72 20 -101 77 -59 115 20 18 24 18 131 0 61 -10 157 -18 213 -19 97 0 105
2 176 36 41 20 100 54 130 77 30 22 62 41 70 41 9 0 32 -11 53 -25z m-433
-367 c19 -23 54 -61 78 -85 23 -23 42 -45 42 -48 0 -2 -15 -28 -34 -57 -45
-71 -102 -195 -167 -358 -29 -74 -54 -136 -55 -138 -9 -15 -204 136 -204 158
0 4 15 13 33 22 24 11 39 13 62 5 20 -7 30 -7 33 1 2 6 15 28 29 49 28 41 24
59 -18 80 -36 19 -138 17 -146 -2 -7 -19 -60 -48 -73 -40 -5 3 -15 24 -22 47
-12 39 -11 41 18 62 73 53 216 178 294 257 47 48 87 87 90 88 3 0 21 -18 40
-41z m-218 -100 c-12 -13 -66 -50 -120 -83 -80 -50 -98 -66 -100 -88 -2 -15
-7 -27 -12 -27 -12 0 -20 27 -27 92 l-6 58 70 0 c61 0 78 5 134 35 75 40 92
44 61 13z m3 -282 c34 -15 45 -38 24 -51 -5 -4 -14 -18 -19 -30 -8 -20 -14
-23 -43 -18 -22 3 -46 -1 -67 -12 l-34 -18 -23 29 c-13 16 -23 32 -23 36 0 3
16 15 35 27 19 11 35 25 35 30 0 22 69 26 115 7z"/>
</g>
</svg>
