<?xml version="1.0" encoding="utf-8"?>
<!-- Generator: Adobe Illustrator 24.1.2, SVG Export Plug-In . SVG Version: 6.00 Build 0)  -->
<svg width="80px" version="1.1" id="Layer_1" xmlns="http://www.w3.org/2000/svg" xmlns:xlink="http://www.w3.org/1999/xlink" x="0px" y="0px"
	 viewBox="0 0 375.05 172.71" style="enable-background:new 0 0 375.05 172.71;" xml:space="preserve">
<style type="text/css">
	.st0{fill:#0D0C11;}
	.st1{opacity:0.2;}
	.st2{fill:url(#SVGID_5_);}
	.st3{opacity:0.8;fill:#CD6300;}
	.st4{fill:#FFFFFF;}
	.st5{opacity:0.8;}
	.st6{fill:none;stroke:#0D0C11;stroke-width:5;stroke-linecap:round;stroke-linejoin:round;stroke-miterlimit:10;}
	.st7{fill:url(#SVGID_6_);}
	.st8{fill:url(#SVGID_7_);}
	.st9{fill:url(#SVGID_8_);}
	.st10{fill:url(#SVGID_9_);}
	.st11{fill:url(#SVGID_10_);}
	.st12{fill:url(#SVGID_11_);}
	.st13{fill:#D1D3D4;}
	.st14{fill:#8D8D8E;}
	.st15{fill:#231F20;}
	.st16{fill:none;stroke:#231F20;stroke-width:5;stroke-linecap:round;stroke-linejoin:round;stroke-miterlimit:10;}
	.st17{fill:url(#SVGID_12_);}
	.st18{fill:url(#SVGID_13_);}
	.st19{fill:url(#SVGID_14_);}
	.st20{fill:url(#SVGID_15_);}
	.st21{fill:url(#SVGID_16_);}
	.st22{fill:url(#SVGID_17_);}
	.st23{fill:url(#SVGID_18_);}
	.st24{fill:url(#SVGID_19_);}
	.st25{fill:url(#SVGID_20_);}
	.st26{fill:url(#SVGID_21_);}
	.st27{fill:url(#SVGID_22_);}
	.st28{fill:url(#SVGID_23_);}
	.st29{fill:url(#SVGID_24_);}
	.st30{fill:url(#SVGID_25_);}
	.st31{fill:url(#SVGID_26_);}
	.st32{fill:url(#SVGID_27_);}
	.st33{fill:url(#SVGID_28_);}
	.st34{fill:url(#SVGID_29_);}
	.st35{fill:url(#SVGID_30_);}
	.st36{fill:url(#SVGID_31_);}
	.st37{fill:url(#SVGID_32_);}
	.st38{fill:url(#SVGID_33_);}
	.st39{fill:url(#SVGID_34_);}
	.st40{fill:none;stroke:url(#SVGID_35_);stroke-width:19;stroke-miterlimit:10;}
	.st41{fill:url(#SVGID_36_);}
	.st42{fill:url(#SVGID_37_);}
	.st43{fill:url(#SVGID_38_);}
	.st44{fill:url(#SVGID_39_);}
	.st45{fill:url(#SVGID_40_);}
	.st46{fill:url(#SVGID_41_);}
	.st47{fill:url(#SVGID_42_);}
	.st48{fill:url(#SVGID_43_);}
	.st49{fill:url(#SVGID_44_);}
	.st50{fill:url(#SVGID_45_);}
	.st51{fill:url(#SVGID_46_);}
	.st52{fill:url(#SVGID_47_);}
	.st53{fill:url(#SVGID_48_);}
	.st54{fill:url(#SVGID_49_);}
	.st55{fill:url(#SVGID_50_);}
	.st56{fill:url(#SVGID_51_);}
	.st57{fill:url(#SVGID_52_);}
	.st58{fill:url(#SVGID_53_);}
	.st59{fill:url(#SVGID_54_);}
	.st60{fill:url(#SVGID_55_);}
	.st61{fill:url(#SVGID_56_);}
	.st62{fill:url(#SVGID_57_);}
	.st63{fill:url(#SVGID_58_);}
	.st64{fill:#E8E0E0;}
	.st65{opacity:0.4;fill:url(#SVGID_59_);}
	.st66{opacity:0.4;fill:url(#SVGID_60_);}
	.st67{opacity:0.4;fill:url(#SVGID_61_);}
	.st68{fill:url(#SVGID_62_);stroke:url(#SVGID_63_);stroke-miterlimit:10;}
	.st69{fill:none;stroke:#FFFFFF;stroke-width:0.5;stroke-miterlimit:10;}
	.st70{fill:url(#SVGID_64_);}
	.st71{fill:url(#SVGID_65_);}
	.st72{fill:url(#SVGID_66_);}
	.st73{fill:url(#SVGID_67_);}
	.st74{fill:url(#SVGID_68_);}
	.st75{fill:url(#SVGID_69_);}
	.st76{fill:url(#SVGID_70_);}
	.st77{fill:url(#SVGID_71_);}
	.st78{fill:url(#SVGID_72_);}
	.st79{fill:url(#SVGID_73_);}
	.st80{fill:url(#SVGID_74_);}
	.st81{fill:url(#SVGID_75_);}
	.st82{fill:url(#SVGID_76_);}
	.st83{fill:url(#SVGID_77_);}
	.st84{fill:url(#SVGID_78_);}
	.st85{fill:url(#SVGID_79_);}
	.st86{fill:url(#SVGID_80_);}
	.st87{fill:url(#SVGID_81_);}
	.st88{opacity:0.4;fill:url(#SVGID_82_);}
	.st89{opacity:0.4;fill:url(#SVGID_83_);}
	.st90{opacity:0.4;fill:url(#SVGID_84_);}
	.st91{fill:url(#SVGID_85_);stroke:url(#SVGID_86_);stroke-miterlimit:10;}
</style>
<g>
	<linearGradient id="SVGID_2_" gradientUnits="userSpaceOnUse" x1="187.5246" y1="-6.366463e-12" x2="187.5246" y2="172.7075">
		<stop  offset="0" style="stop-color:#00FF00"/>
		<stop  offset="1" style="stop-color:#006837"/>
	</linearGradient>
	<path style="fill:none;stroke:url(#SVGID_2_);stroke-width:19;stroke-miterlimit:10;" d="M354.25,11.14
		c-10.67-0.06-16.01-0.09-26.68-0.15c-0.02,0-0.04,0-0.06,0c-3.02,0-5.92,1.2-8.06,3.35c-2.15,2.16-3.34,5.09-3.31,8.13l0.52,52.81
		c-4.6-0.97-8.61-1.75-14.08-2.75l-0.24-13.88l-0.27-15.88c-0.1-5.99-0.72-10.81-1.9-14.75c-1.61-5.36-4.77-9.79-9.16-12.8
		c-3.77-2.58-8.53-4.24-14.17-4.94c-4.28-0.53-9.51-0.79-15.98-0.79c-6.25,0-11.58,0.25-15.85,0.74
		c-5.64,0.65-10.15,2.12-13.79,4.49c-2.24,1.46-4.15,3.29-5.7,5.42c-1.36-1.49-2.94-2.8-4.72-3.88c-3.54-2.13-7.91-3.45-13.37-4.05
		c-4.3-0.47-9.58-0.7-16.13-0.7c-11.86,0-17.79,0-29.65,0.01l-10.41,0.01l-0.03,3.94c-0.45-0.33-0.91-0.65-1.39-0.94
		c-3.71-2.27-8.19-3.68-13.72-4.31c-4.26-0.48-9.59-0.73-15.84-0.73c-6.45,0-11.67,0.25-15.96,0.78c-5.48,0.67-9.91,2.18-13.54,4.58
		c-2.08-2.45-5.19-4.01-8.66-4.01h-0.01c-0.02,0-0.04,0-0.06,0c-10.67,0.04-16.01,0.06-26.68,0.11C54,10.96,52.7,11.2,51.5,11.64
		c-1.21-0.43-2.49-0.65-3.79-0.65c-0.02,0-0.04,0-0.06,0c-10.74,0.05-16.11,0.08-26.85,0.15c-6.25,0.04-11.3,5.12-11.3,11.37v129.33
		c0,3.94,2.04,7.61,5.4,9.68c1.82,1.12,3.89,1.69,5.97,1.69c1.75,0,3.5-0.4,5.11-1.21c9.83-4.94,14.71-7.17,24.88-11.35
		c1.63-0.67,3.05-1.7,4.18-2.97c0.35,0.03,0.7,0.05,1.05,0.05c1.36,0,2.72-0.24,4.03-0.74c10.37-3.93,15.5-5.65,26.15-8.77
		c1.04-0.31,2.01-0.75,2.89-1.31c0.04,0,0.08,0.01,0.12,0.01c1.01,0,2.02-0.13,3.01-0.41c9.99-2.74,14.92-3.91,25.08-5.92
		c1.06-0.21,2.05-0.56,2.97-1.03c0.37,0.04,0.75,0.06,1.12,0.06c0.67,0,1.35-0.06,2.02-0.18c10.55-1.91,15.73-2.65,26.39-3.77
		c1.57-0.16,3.03-0.65,4.33-1.38l7.48-0.54c11.88-0.85,17.69-1.03,29.6-0.91c6.55,0.07,11.79,0.07,16.07-0.17
		c5.57-0.3,10-1.33,13.54-3.15c0.43-0.22,0.85-0.47,1.26-0.72c1.38,4.01,4.94,7.04,9.35,7.58c10.26,1.26,15.24,2.06,25.37,4.04
		c0.73,0.14,1.46,0.21,2.19,0.21c0.32,0,0.64-0.01,0.95-0.04c0.91,0.49,1.91,0.85,2.96,1.08c10.53,2.26,15.63,3.55,25.96,6.59
		c1.05,0.31,2.13,0.46,3.2,0.46c1.75,0,3.48-0.41,5.06-1.2c2.81,2.78,6.28,5.2,10.53,7.36c3.56,1.8,8,3.78,14.42,6.4
		c7.17,2.93,11.57,4.57,15.17,5.64c3.08,0.92,5.85,1.36,8.45,1.36c2.87,0,5.53-0.55,7.92-1.64c3.73-1.7,8.58-5.53,10.49-14.14
		c0.91-4.12,1.36-9.47,1.36-16.37V22.51C365.55,16.25,360.5,11.17,354.25,11.14z M258.22,39.15c-0.08,0.09-0.15,0.2-0.21,0.33
		C258.07,39.35,258.14,39.24,258.22,39.15C258.22,39.15,258.23,39.15,258.22,39.15C258.23,39.15,258.22,39.15,258.22,39.15z
		 M259.07,119.27L259.07,119.27L259.07,119.27L259.07,119.27L259.07,119.27z"/>
	<g>
		<g>
			<path  style="
    fill: black;" class="st0" d="M149.35,124.56l0.88-113.03l10.41-0.01c11.86-0.01,17.79-0.01,29.65-0.01c6.55,0,11.83,0.23,16.13,0.7
				c5.46,0.6,9.83,1.92,13.37,4.05c4.31,2.59,7.44,6.47,9.09,11.23c1.23,3.56,1.85,7.87,1.9,13.16l0.54,54.32
				c0.05,5.35-0.51,9.68-1.71,13.24c-1.68,4.99-5.04,8.9-9.71,11.3c-3.54,1.82-7.97,2.85-13.54,3.15
				c-4.28,0.23-9.52,0.23-16.07,0.17c-11.91-0.13-17.72,0.05-29.6,0.91L149.35,124.56z M171.07,32.52l-0.54,69.59
				c2.1-0.1,4.12-0.17,6.17-0.22l-0.01-69.38C174.82,32.51,172.99,32.52,171.07,32.52z M201.89,32.88c1.35,2.08,2.04,4.6,2.05,7.52
				l0.11,53.43c0.01,3.14-0.78,5.83-2.34,8c1.26-0.03,2.44-0.07,3.51-0.13c2.59-0.14,3.98-0.47,4.62-0.68
				c0.22-0.88,0.5-2.65,0.47-5.84l-0.54-54.32c-0.04-4.02-0.54-5.9-0.76-6.52c-0.01-0.02-0.01-0.04-0.02-0.06
				c-0.37-0.21-1.67-0.84-4.87-1.2C203.43,33.01,202.69,32.94,201.89,32.88z"/>
		</g>
		<path style="
    fill: black;" class="st0" d="M81.07,22.21h0.01 M81.07,22.21c-2.1,8.14-3.82,14.89-5.16,20.14c-1.34,5.24-2.44,9.53-3.3,12.82
			c-0.87,3.28-1.53,5.84-1.99,7.64c-0.46,1.8-0.92,3.43-1.37,4.87c0.31,1.06,0.62,2.19,0.92,3.38c0.31,1.19,0.66,2.75,1.06,4.65
			c0.4,1.9,0.91,4.24,1.51,7c0.61,2.76,1.34,6.18,2.19,10.25c0.85,4.07,1.86,8.96,3,14.62c1.15,5.67,2.52,12.27,4.13,19.74
			c-10.89,3.19-16.3,5-26.98,9.05c-1.39-7.61-2.77-16.04-4.16-25.31c-1.39-9.27-2.72-19.01-4.01-29.23
			c-0.32,0.07-0.48,0.1-0.81,0.17c-0.23,23.26-0.34,34.88-0.57,58.14c-10.4,4.27-15.54,6.61-25.67,11.71c0-43.11,0-86.22,0-129.33
			c10.73-0.06,16.1-0.09,26.83-0.15c-0.16,16.58-0.25,24.87-0.41,41.44c0.32-0.05,0.49-0.07,0.81-0.12
			c0.93-6.67,1.97-13.41,3.13-20.22c1.16-6.8,2.54-13.87,4.16-21.15C65.07,22.27,70.4,22.25,81.07,22.21 M81.09,10.84h-0.01
			c-0.02,0-0.04,0-0.06,0c-10.67,0.04-16.01,0.06-26.68,0.11C53,10.96,51.7,11.2,50.5,11.64c-1.21-0.43-2.49-0.65-3.79-0.65
			c-0.02,0-0.04,0-0.06,0c-10.74,0.05-16.11,0.08-26.85,0.15c-6.25,0.04-11.3,5.12-11.3,11.37v129.33c0,3.94,2.04,7.61,5.4,9.68
			c1.82,1.12,3.89,1.69,5.97,1.69c1.75,0,3.5-0.4,5.11-1.21c9.83-4.94,14.71-7.17,24.88-11.35c1.63-0.67,3.05-1.7,4.18-2.97
			c0.35,0.03,0.7,0.05,1.05,0.05c1.36,0,2.72-0.24,4.03-0.74c10.37-3.93,15.5-5.65,26.15-8.77c5.71-1.68,9.17-7.48,7.92-13.3
			c-1.49-6.96-2.87-13.56-4.1-19.61c-1.15-5.69-2.16-10.6-3.02-14.69c-0.86-4.11-1.6-7.57-2.21-10.36c-0.6-2.72-1.1-5.03-1.49-6.91
			c-0.43-2.01-0.82-3.73-1.17-5.11c-0.04-0.16-0.08-0.31-0.12-0.47c0.19-0.69,0.38-1.41,0.57-2.14c0.46-1.79,1.12-4.32,1.97-7.57
			c0.87-3.3,1.98-7.62,3.33-12.9l0.04-0.17c1.3-5.12,2.97-11.67,5-19.53c0.31-1.03,0.47-2.12,0.47-3.25
			C92.45,15.93,87.37,10.84,81.09,10.84L81.09,10.84z M81.07,33.58h0.01H81.07L81.07,33.58z"/>
		<path style="
    fill: black;" class="st0" d="M119.24,20.87c5.89,0,10.75,0.22,14.56,0.66c3.81,0.43,6.83,1.34,9.05,2.7c2.22,1.36,3.73,3.31,4.52,5.83
			c0.79,2.53,1.17,5.93,1.12,10.21c-0.27,24.7-0.54,49.39-0.81,74.09c-10.93,1.15-16.38,1.93-27.23,3.88
			c0.12-7.64,0.18-11.47,0.31-19.11c-2.52,0.37-3.78,0.56-6.29,0.96c-0.13,7.74-0.19,11.61-0.32,19.34
			c-10.42,2.07-15.6,3.29-25.88,6.11c0.48-27.65,0.96-55.31,1.45-82.96c0.08-4.8,0.56-8.63,1.43-11.48
			c0.87-2.85,2.38-5.04,4.54-6.56c2.16-1.52,5.14-2.51,8.97-2.98C108.49,21.1,113.35,20.87,119.24,20.87 M114.75,83.71
			c2.51-0.32,3.76-0.47,6.28-0.76c0.27-16.75,0.4-25.12,0.67-41.87c0.02-1.05-0.14-1.76-0.46-2.11c-0.28-0.31-0.99-0.47-2.13-0.47
			c-0.16,0-0.32,0-0.49,0.01c-1.42,0.05-2.3,0.26-2.64,0.65c-0.33,0.38-0.51,1.11-0.53,2.17C115.18,58.28,115.04,66.75,114.75,83.71
			 M119.24,9.5c-6.45,0-11.67,0.25-15.96,0.78c-5.79,0.71-10.42,2.34-14.16,4.98c-4.19,2.97-7.25,7.3-8.85,12.53
			c-1.19,3.91-1.82,8.68-1.92,14.6l-0.29,16.42l-1.16,66.54c-0.06,3.58,1.57,6.98,4.39,9.18c2.02,1.57,4.48,2.39,6.97,2.39
			c1.01,0,2.02-0.13,3.01-0.41c9.99-2.74,14.92-3.91,25.08-5.92c1.06-0.21,2.05-0.56,2.97-1.03c0.37,0.04,0.75,0.06,1.12,0.06
			c0.67,0,1.35-0.06,2.02-0.18c10.55-1.91,15.73-2.65,26.39-3.77c5.74-0.6,10.12-5.41,10.18-11.18l0.81-74.09
			c0.06-5.53-0.48-10.02-1.64-13.73c-1.61-5.13-4.87-9.32-9.42-12.12c-3.71-2.27-8.19-3.68-13.72-4.31
			C130.83,9.75,125.5,9.5,119.24,9.5L119.24,9.5z"/>
		<path style="
    fill: black;" class="st0" d="M259.87,20.87c5.89,0,10.75,0.23,14.58,0.7c3.83,0.48,6.87,1.48,9.14,3.03c2.26,1.55,3.83,3.78,4.7,6.68
			c0.87,2.9,1.34,6.8,1.43,11.68c0.48,28.13,0.96,56.26,1.44,84.39c-10.63-3.12-16-4.48-26.78-6.79c-0.13-7.83-0.2-11.74-0.34-19.57
			c-2.51-0.43-3.77-0.64-6.28-1.04c0.13,7.73,0.19,11.59,0.32,19.31c-10.42-2.05-15.66-2.88-26.17-4.17
			c-0.31-24.89-0.62-49.79-0.93-74.68c-0.05-4.32,0.31-7.74,1.1-10.29c0.79-2.54,2.24-4.5,4.35-5.88c2.11-1.37,5.07-2.28,8.89-2.72
			C249.12,21.1,253.97,20.87,259.87,20.87 M263.74,84.43c-0.3-17.15-0.44-25.72-0.74-42.87c-0.02-1.08-0.19-1.81-0.53-2.2
			c-0.33-0.39-1.21-0.61-2.63-0.66c-0.18-0.01-0.36-0.01-0.52-0.01c-1.12,0-1.81,0.16-2.09,0.47c-0.32,0.36-0.47,1.07-0.46,2.13
			c0.28,16.93,0.42,25.39,0.71,42.31C259.98,83.92,261.24,84.08,263.74,84.43 M259.87,9.5c-6.25,0-11.58,0.25-15.85,0.74
			c-5.64,0.65-10.15,2.12-13.79,4.49c-4.33,2.82-7.44,6.98-9.01,12.04c-1.15,3.73-1.68,8.24-1.61,13.8l0.06,4.62l0.87,70.06
			c0.07,5.69,4.33,10.45,9.98,11.14c10.26,1.26,15.24,2.06,25.37,4.04c0.73,0.14,1.46,0.21,2.19,0.21c0.32,0,0.64-0.01,0.95-0.04
			c0.91,0.49,1.91,0.85,2.96,1.08c10.53,2.26,15.63,3.55,25.96,6.59c1.05,0.31,2.13,0.46,3.2,0.46c2.46,0,4.89-0.8,6.89-2.33
			c2.88-2.19,4.54-5.62,4.48-9.24l-1.17-68.51l-0.27-15.88c-0.1-5.99-0.72-10.81-1.9-14.75c-1.61-5.36-4.77-9.79-9.16-12.8
			c-3.77-2.58-8.53-4.24-14.17-4.94C271.57,9.76,266.34,9.5,259.87,9.5L259.87,9.5z"/>
		<path style="
    fill: black;" class="st0" d="M326.51,22.36c10.67,0.05,16,0.08,26.67,0.15c0,34.54,0,69.09,0,103.63c0,6-0.36,10.66-1.09,13.91
			c-0.72,3.26-2.09,5.34-4.11,6.26c-0.91,0.41-1.98,0.62-3.2,0.62c-1.5,0-3.23-0.3-5.21-0.89c-3.6-1.07-8.29-2.89-14.11-5.27
			c-5.5-2.25-10.05-4.23-13.59-6.02c-3.54-1.79-6.36-3.81-8.43-6.08c-2.07-2.27-3.52-5-4.32-8.22c-0.8-3.22-1.25-7.3-1.33-12.28
			c-0.16-9.94-0.24-14.91-0.4-24.85c9.58,1.73,14.35,2.69,23.83,4.8c0.12,10.7,0.19,16.05,0.31,26.76c0.01,1.27,0.18,2.17,0.51,2.71
			c0.33,0.54,1.18,1.04,2.57,1.5c0.71,0.24,1.28,0.36,1.69,0.36c0.33,0,0.56-0.07,0.7-0.22c0.31-0.34,0.46-1.16,0.45-2.45
			C327.13,85.31,326.82,53.83,326.51,22.36 M326.51,10.99c-3.02,0-5.92,1.2-8.06,3.35c-2.15,2.16-3.34,5.09-3.31,8.13l0.52,52.81
			c-5.19-1.1-9.62-1.94-16.25-3.14c-0.67-0.12-1.35-0.18-2.02-0.18c-2.67,0-5.29,0.94-7.36,2.7c-2.59,2.2-4.06,5.45-4.01,8.85
			l0.4,24.85c0.1,5.89,0.64,10.75,1.67,14.85c1.26,5.03,3.6,9.45,6.95,13.12c3,3.3,6.83,6.1,11.69,8.56c3.56,1.8,8,3.78,14.42,6.4
			c7.17,2.93,11.57,4.57,15.17,5.64c3.08,0.92,5.85,1.36,8.45,1.36c2.87,0,5.53-0.55,7.92-1.64c3.73-1.7,8.58-5.53,10.49-14.14
			c0.91-4.12,1.36-9.47,1.36-16.37V22.51c0-6.25-5.05-11.33-11.3-11.37c-10.67-0.06-16.01-0.09-26.68-0.15
			C326.55,10.99,326.53,10.99,326.51,10.99L326.51,10.99z"/>
		<path style="
    fill: black;" class="st0" d="M190.54,96.34c1.36,0,2.2-0.16,2.52-0.48c0.33-0.34,0.5-1,0.5-1.99c-0.05-21.37-0.07-32.06-0.11-53.43
			c0-0.99-0.17-1.66-0.5-2c-0.33-0.34-1.21-0.52-2.63-0.52c-1.25,0-1.88,0-3.13,0c0,23.37,0.01,35.05,0.01,58.42
			c1.27,0,1.91,0.01,3.18,0.02C190.43,96.33,190.49,96.34,190.54,96.34"/>
		<path class="st4" d="M55.09,136.36c-1.39-7.61-2.77-16.04-4.16-25.31c-1.39-9.27-2.72-19.01-4.01-29.23
			c-0.32,0.07-0.48,0.1-0.81,0.17c-0.23,23.26-0.34,34.88-0.57,58.14c-10.4,4.27-15.54,6.61-25.67,11.71c0-43.11,0-86.22,0-129.33
			c10.73-0.06,16.1-0.09,26.83-0.15c-0.16,16.58-0.25,24.87-0.41,41.44c0.32-0.05,0.49-0.07,0.81-0.12
			c0.93-6.67,1.97-13.41,3.13-20.22c1.16-6.8,2.54-13.87,4.16-21.15c10.67-0.05,16.01-0.07,26.68-0.11
			c-2.1,8.14-3.82,14.89-5.16,20.14c-1.34,5.24-2.44,9.53-3.3,12.82c-0.87,3.28-1.53,5.84-1.99,7.64c-0.46,1.8-0.92,3.43-1.37,4.87
			c0.31,1.06,0.62,2.19,0.92,3.38c0.31,1.19,0.66,2.75,1.06,4.65c0.4,1.9,0.91,4.24,1.51,7c0.61,2.76,1.34,6.18,2.19,10.25
			c0.85,4.07,1.86,8.96,3,14.62c1.15,5.67,2.52,12.27,4.13,19.74C71.17,130.51,65.77,132.32,55.09,136.36z"/>
		<path class="st4" d="M119.24,20.87c5.89,0,10.75,0.22,14.56,0.66c3.81,0.43,6.83,1.34,9.05,2.7c2.22,1.36,3.73,3.31,4.52,5.83
			c0.79,2.53,1.17,5.93,1.12,10.21c-0.27,24.7-0.54,49.39-0.81,74.09c-10.93,1.15-16.38,1.93-27.23,3.88
			c0.12-7.64,0.18-11.47,0.31-19.11c-2.52,0.37-3.78,0.56-6.29,0.96c-0.13,7.74-0.19,11.61-0.32,19.34
			c-10.42,2.07-15.6,3.29-25.88,6.11c0.48-27.65,0.96-55.31,1.45-82.96c0.08-4.8,0.56-8.63,1.43-11.48
			c0.87-2.85,2.38-5.04,4.54-6.56c2.16-1.52,5.14-2.51,8.97-2.98C108.49,21.1,113.35,20.87,119.24,20.87z M114.75,83.71
			c2.51-0.32,3.76-0.47,6.28-0.76c0.27-16.75,0.4-25.12,0.67-41.87c0.02-1.05-0.14-1.76-0.46-2.11c-0.32-0.35-1.2-0.51-2.62-0.46
			c-1.42,0.05-2.3,0.26-2.64,0.65c-0.33,0.38-0.51,1.11-0.53,2.17C115.18,58.28,115.04,66.75,114.75,83.71z"/>
		<path class="st4" d="M220.82,95.08c0.04,4.11-0.35,7.37-1.16,9.78c-0.81,2.41-2.33,4.18-4.56,5.32c-2.23,1.15-5.33,1.79-9.31,2.01
			c-3.98,0.22-9.11,0.22-15.4,0.15c-12.19-0.13-18.29,0.06-30.46,0.93c0.24-30.42,0.47-60.83,0.71-91.25
			c11.86-0.01,17.79-0.01,29.64-0.01c6.11,0,11.11,0.21,14.99,0.64c3.88,0.43,6.91,1.3,9.11,2.61c2.2,1.32,3.72,3.2,4.56,5.65
			c0.84,2.45,1.29,5.73,1.33,9.84C220.5,62.49,220.6,73.35,220.82,95.08z M187.2,96.32c1.27,0,1.91,0.01,3.18,0.02
			c1.45,0.01,2.34-0.15,2.68-0.48c0.33-0.34,0.5-1,0.5-1.99c-0.05-21.37-0.07-32.06-0.11-53.43c0-0.99-0.17-1.66-0.5-2
			c-0.33-0.34-1.21-0.52-2.63-0.52c-1.25,0-1.88,0-3.13,0C187.19,61.27,187.19,72.95,187.2,96.32z"/>
		<path class="st4" d="M259.87,20.87c5.89,0,10.75,0.23,14.58,0.7c3.83,0.48,6.87,1.48,9.14,3.03c2.26,1.55,3.83,3.78,4.7,6.68
			c0.87,2.9,1.34,6.8,1.43,11.68c0.48,28.13,0.96,56.26,1.44,84.39c-10.63-3.12-16-4.48-26.78-6.79c-0.13-7.83-0.2-11.74-0.34-19.57
			c-2.51-0.43-3.77-0.64-6.28-1.04c0.13,7.72,0.19,11.59,0.32,19.31c-10.42-2.04-15.66-2.88-26.17-4.17
			c-0.31-24.89-0.62-49.79-0.93-74.68c-0.05-4.32,0.31-7.74,1.1-10.29c0.79-2.54,2.24-4.5,4.35-5.88c2.11-1.37,5.07-2.28,8.89-2.72
			C249.12,21.1,253.97,20.87,259.87,20.87z M257.47,83.6c2.51,0.32,3.76,0.48,6.27,0.82c-0.3-17.15-0.44-25.72-0.74-42.87
			c-0.02-1.08-0.19-1.81-0.53-2.2c-0.33-0.39-1.21-0.61-2.63-0.66c-1.42-0.05-2.29,0.1-2.62,0.46c-0.32,0.36-0.47,1.07-0.46,2.13
			C257.05,58.21,257.19,66.68,257.47,83.6z"/>
		<path class="st4" d="M326.51,22.36c10.67,0.05,16,0.08,26.67,0.15c0,34.54,0,69.09,0,103.63c0,6-0.36,10.66-1.09,13.91
			c-0.72,3.26-2.09,5.34-4.11,6.26c-2.02,0.92-4.82,0.8-8.41-0.27c-3.6-1.07-8.29-2.89-14.11-5.27c-5.5-2.25-10.05-4.23-13.59-6.02
			c-3.54-1.79-6.36-3.81-8.43-6.08c-2.07-2.27-3.52-5-4.32-8.22c-0.8-3.22-1.25-7.3-1.33-12.28c-0.16-9.94-0.24-14.91-0.4-24.85
			c9.58,1.73,14.35,2.69,23.83,4.8c0.12,10.7,0.19,16.05,0.31,26.76c0.01,1.27,0.18,2.17,0.51,2.71c0.33,0.54,1.18,1.04,2.57,1.5
			c1.28,0.42,2.07,0.47,2.39,0.13c0.31-0.34,0.46-1.16,0.45-2.45C327.13,85.31,326.82,53.83,326.51,22.36z"/>
		<g>
			<linearGradient id="SVGID_4_" gradientUnits="userSpaceOnUse" x1="50.9681" y1="133.3673" x2="50.9681" y2="101.6754">
				<stop  offset="0" style="stop-color:#F2F2F2"/>
				<stop  offset="1" style="stop-color:#B3B3B3"/>
			</linearGradient>
			<path style="fill:url(#SVGID_4_);" d="M74.94,92.95c-0.85-4.07-1.58-7.49-2.19-10.25c-0.61-2.76-1.11-5.09-1.51-7
				c-0.16-0.76-0.31-1.44-0.46-2.09H19.87c0,26.07,0,52.15,0,78.22c10.13-5.09,15.27-7.43,25.67-11.71
				c0.23-23.26,0.34-34.88,0.57-58.14c0.32-0.07,0.48-0.1,0.81-0.17c1.29,10.22,2.63,19.96,4.01,29.23
				c1.39,9.27,2.77,17.7,4.16,25.31c10.68-4.05,16.08-5.85,26.98-9.05c-1.6-7.47-2.98-14.08-4.13-19.74
				C76.79,101.91,75.79,97.02,74.94,92.95z"/>
			<linearGradient id="SVGID_5_" gradientUnits="userSpaceOnUse" x1="325.2849" y1="131.803" x2="325.2849" y2="100.8937">
				<stop  offset="0" style="stop-color:#F2F2F2"/>
				<stop  offset="1" style="stop-color:#B3B3B3"/>
			</linearGradient>
			<path class="st2" d="M327.01,73.62c0.14,14.39,0.28,28.78,0.42,43.16c0.01,1.29-0.14,2.11-0.45,2.45
				c-0.31,0.34-1.11,0.29-2.39-0.13c-1.38-0.46-2.24-0.96-2.57-1.5c-0.33-0.54-0.49-1.45-0.51-2.71
				c-0.12-10.7-0.19-16.05-0.31-26.76c-9.48-2.11-14.25-3.07-23.83-4.8c0.16,9.94,0.24,14.91,0.4,24.85
				c0.08,4.98,0.53,9.06,1.33,12.28c0.8,3.21,2.25,5.94,4.32,8.22c2.07,2.27,4.89,4.29,8.43,6.08c3.54,1.79,8.08,3.77,13.59,6.02
				c5.82,2.38,10.51,4.19,14.11,5.27c3.6,1.07,6.4,1.19,8.41,0.27c2.02-0.92,3.39-3.01,4.11-6.26c0.72-3.26,1.09-7.91,1.09-13.91
				c0-17.51,0-35.01,0-52.52H327.01z"/>
			<linearGradient id="SVGID_6_" gradientUnits="userSpaceOnUse" x1="261.264" y1="124.266" x2="261.264" y2="97.7604">
				<stop  offset="0" style="stop-color:#F2F2F2"/>
				<stop  offset="1" style="stop-color:#B3B3B3"/>
			</linearGradient>
			<path class="st7" d="M263.56,73.62c0.06,3.29,0.12,6.81,0.19,10.81c-2.51-0.34-3.76-0.51-6.27-0.82
				c-0.06-3.67-0.12-6.94-0.17-9.99h-25.93c0.17,13.83,0.34,27.66,0.51,41.49c10.51,1.29,15.75,2.13,26.17,4.17
				c-0.13-7.72-0.19-11.59-0.32-19.31c2.52,0.4,3.77,0.61,6.28,1.04c0.13,7.83,0.2,11.74,0.34,19.57
				c10.79,2.31,16.15,3.67,26.78,6.79c-0.3-17.92-0.61-35.83-0.91-53.75H263.56z"/>
			<linearGradient id="SVGID_7_" gradientUnits="userSpaceOnUse" x1="190.3802" y1="116.7307" x2="190.3802" y2="93.9084">
				<stop  offset="0" style="stop-color:#F2F2F2"/>
				<stop  offset="1" style="stop-color:#B3B3B3"/>
			</linearGradient>
			<path class="st8" d="M193.51,73.62c0.01,6.01,0.03,12.41,0.04,20.24c0,0.99-0.16,1.66-0.5,1.99c-0.33,0.34-1.23,0.5-2.68,0.48
				c-1.27-0.01-1.91-0.01-3.18-0.02c0-8.81,0-15.96,0-22.7h-26.94c-0.1,13.22-0.21,26.44-0.31,39.66
				c12.17-0.87,18.27-1.06,30.46-0.93c6.28,0.07,11.42,0.06,15.4-0.15c3.98-0.21,7.08-0.86,9.31-2.01c2.23-1.14,3.75-2.91,4.56-5.32
				c0.81-2.41,1.2-5.67,1.16-9.78c-0.08-8.35-0.15-15.09-0.21-21.47H193.51z"/>
			<linearGradient id="SVGID_8_" gradientUnits="userSpaceOnUse" x1="118.2048" y1="123.4064" x2="118.2048" y2="97.3506">
				<stop  offset="0" style="stop-color:#F2F2F2"/>
				<stop  offset="1" style="stop-color:#B3B3B3"/>
			</linearGradient>
			<path class="st9" d="M121.18,73.62c-0.05,2.86-0.09,5.91-0.15,9.33c-2.51,0.29-3.77,0.44-6.28,0.76
				c0.06-3.72,0.12-7.01,0.17-10.09H89.18c-0.3,17.31-0.6,34.62-0.91,51.94c10.28-2.82,15.46-4.04,25.88-6.11
				c0.13-7.74,0.19-11.61,0.32-19.34c2.51-0.4,3.77-0.59,6.29-0.96c-0.12,7.64-0.18,11.47-0.31,19.11
				c10.84-1.96,16.29-2.74,27.23-3.88c0.15-13.58,0.3-27.16,0.44-40.74H121.18z"/>
		</g>
	</g>
</g>
</svg>
