<?xml version="1.0" encoding="utf-8"?>
<!-- Generator: Adobe Illustrator 24.1.2, SVG Export Plug-In . SVG Version: 6.00 Build 0)  -->
<svg width="100px" height="100px" version="1.1" id="Layer_1" xmlns="http://www.w3.org/2000/svg" xmlns:xlink="http://www.w3.org/1999/xlink" x="0px" y="0px"
	 viewBox="0 0 432 360" style="enable-background:new 0 0 432 360;" xml:space="preserve">
<style type="text/css">
	.st0{fill-rule:evenodd;clip-rule:evenodd;fill:#6441A4;}
	.st1{fill:#FFFFFF;}
	.st2{fill:#6441A4;}
</style>
<g>
	<polygon class="st0" points="251.5,91 247.5,104 247.59,164 262.5,164 262.5,172 270.5,172 278.5,164 292.5,164 318.5,138 
		318.5,91 	"/>
	<polygon class="st1" points="311.5,134 300.5,145 282.5,145 272.5,155 272.5,145 257.5,145 257.5,98 311.5,98 	"/>
	<rect x="293.5" y="111" class="st2" width="7" height="20"/>
	<rect x="275.5" y="111" class="st2" width="7" height="20"/>
	<polygon class="st0" points="360.5,204 360.5,251 334.5,269 318.5,269 318.5,261 306.5,269 292.5,269 292.5,261 283.5,269 
		257.5,269 249.5,261 247.5,269 224.55,268.94 215.5,261 214.5,269 188.49,268.94 187.5,261 180.5,268.94 140.5,269 132.5,265 
		132.5,269 110.5,269 86.5,254 71.5,239 71.5,173 102.5,173 117.5,188 185.5,188 185.5,173 241.5,173 241.5,188 255.5,188 
		255.5,196 263.5,188 280.5,188 295.5,173 327.5,173 327.5,188 344.5,188 	"/>
	<g>
		<polygon class="st1" points="110.5,195 96.5,195 96.5,180 78.5,180 78.5,236 89.5,248 110.5,248 110.5,229 96.5,229 96.5,213 
			110.5,213 		"/>
		<polygon class="st1" points="185.5,195 167.5,195 167.5,229 160.5,229 160.5,195 143.5,195 143.5,229 136.5,229 136.5,195 
			117.5,195 117.5,248 173.5,248 185.5,236 		"/>
		<rect x="192.5" y="195" class="st1" width="17" height="53"/>
		<rect x="192.5" y="180" class="st1" width="17" height="8"/>
		<polygon class="st1" points="248.5,195 234.5,195 234.5,180 216.5,180 216.5,236 227.5,248 248.5,248 248.5,229 234.5,229 
			234.5,213 248.5,213 		"/>
		<polygon class="st1" points="294.5,195 266.5,195 255.5,206 255.5,236 267.5,248 294.5,248 294.5,229 274.5,229 274.5,213 
			294.5,213 		"/>
		<polygon class="st1" points="353.5,206 341.5,195 320.5,195 320.5,180 301.5,180 301.5,248 320.5,248 320.5,213 334.5,213 
			334.5,248 353.5,248 		"/>
	</g>
</g>
</svg>
